# xmcd CD database file
#
# Track frame offsets:
#	150
#	19805
#	37567
#	59627
#	79722
#	96467
#	113487
#	131280
#	150115
#	166560
#
# Disc length: 2472 seconds
#
# Revision: 0
# Processed by: cddbd v1.5.1PL0 Copyright (c) Steve Scherf et al.
# Submitted via: CDex 1.51
#
DISCID=6209a60a
DTITLE=Jay Jay Johnson - The Eminent Jay Jay Johnson Volume 1
DYEAR=1954
DGENRE=Jazz
TTITLE0=Turnpike
TTITLE1=Lover Man
TTITLE2=Get Happy
TTITLE3=Sketch 1
TTITLE4=Capri
TTITLE5=Jay
TTITLE6=Old Devil Moon
TTITLE7=It's You Or No One
TTITLE8=Too Marvelous For Words
TTITLE9=Coffee Pot
EXTD=YEAR: 1954
EXTT0=
EXTT1=
EXTT2=
EXTT3=
EXTT4=
EXTT5=
EXTT6=
EXTT7=
EXTT8=
EXTT9=
PLAYORDER=
